<svg xmlns="http://www.w3.org/2000/svg" xmlns:xlink="http://www.w3.org/1999/xlink" viewBox="0 0 240.94 155.91"><defs><style>.cls-1{fill:none;}.cls-2{isolation:isolate;}.cls-3{fill:#f8f8f9;}.cls-4{mix-blend-mode:multiply;fill:url(#radial-gradient);}.cls-5{clip-path:url(#clip-path);}.cls-6{fill:#d8d9da;opacity:0.6;}.cls-7{fill:#c7c8ca;}.cls-8{fill:#efeff0;}.cls-9{fill:#ed1c24;}.cls-10{fill:#f58967;}</style><radialGradient id="radial-gradient" cx="-1493.7" cy="13088.64" r="41.97" gradientTransform="translate(-2313.05 -2317.4) rotate(-90) scale(1.61 0.19)" gradientUnits="userSpaceOnUse"><stop offset="0" stop-color="#d3d5d6"/><stop offset="0.22" stop-color="#e4e5e5"/><stop offset="0.56" stop-color="#f8f8f8"/><stop offset="0.79" stop-color="#fff"/></radialGradient><clipPath id="clip-path"><rect id="SVGID" class="cls-1" x="0.65" y="0.3" width="240.14" height="155.61"/></clipPath></defs><g class="cls-2"><g id="Calque_1" data-name="Calque 1"><rect class="cls-3" x="0.81" y="0.3" width="240.14" height="155.6"/><path class="cls-4" d="M129.31,83.5c0-37.25-3.5-67.44-7.81-67.44V151C125.81,151,129.31,120.75,129.31,83.5Z"/><g class="cls-5"><rect class="cls-6" x="-3.39" y="-1.56" width="249.5" height="8.39"/><polygon class="cls-7" points="26.91 157.91 -4.7 121.98 -4.7 153.6 -0.91 157.91 26.91 157.91"/><polygon class="cls-8" points="48.67 157.91 -4.7 97.23 -4.7 128.85 20.86 157.91 48.67 157.91"/><polygon class="cls-7" points="70.44 157.91 -4.7 72.48 -4.7 104.11 42.63 157.91 70.44 157.91"/><polygon class="cls-8" points="92.21 157.91 -0.27 52.76 -4.7 57.79 -4.7 79.36 64.4 157.91 92.21 157.91"/><polygon class="cls-9" points="57.67 -3.24 -4.7 67.66 -4.7 99.28 85.48 -3.24 57.67 -3.24"/><polygon class="cls-10" points="35.9 -3.24 -4.7 42.91 -4.7 74.53 63.71 -3.24 35.9 -3.24"/><polygon class="cls-9" points="14.13 -3.24 -4.7 18.16 -4.7 49.78 41.94 -3.24 14.13 -3.24"/><polygon class="cls-10" points="-4.7 -3.24 -4.7 25.03 20.17 -3.24 -4.7 -3.24"/><polygon class="cls-9" points="202.82 161.01 246.26 111.64 246.26 89.61 183.44 161.01 202.82 161.01"/><polygon class="cls-10" points="217.99 161.01 246.26 128.87 246.26 106.85 198.61 161.01 217.99 161.01"/><polygon class="cls-9" points="233.15 161.01 246.26 146.11 246.26 124.08 213.77 161.01 233.15 161.01"/><polygon class="cls-10" points="246.26 161.01 246.26 141.32 228.94 161.01 246.26 161.01"/></g></g></g></svg>