<svg id="Calque_1" data-name="Calque 1" xmlns="http://www.w3.org/2000/svg" xmlns:xlink="http://www.w3.org/1999/xlink" viewBox="0 0 240.94 155.91"><defs><style>.cls-1{fill:none;}.cls-2{fill:#f8f8f9;}.cls-3{clip-path:url(#clip-path);}.cls-4{fill:#d8d9da;opacity:0.6;}.cls-5{fill:#c7c8ca;}.cls-6{fill:#efeff0;}.cls-7{fill:#ed1c24;}.cls-8{fill:#f58967;}</style><clipPath id="clip-path"><rect id="SVGID" class="cls-1" x="0.57" width="240.38" height="155.91"/></clipPath></defs><rect class="cls-2" x="0.57" width="240.38" height="155.91"/><g class="cls-3"><rect class="cls-4" x="-3.48" y="-1.86" width="249.76" height="8.4"/><polygon class="cls-5" points="26.85 157.91 -4.78 121.92 -4.78 153.6 -1 157.91 26.85 157.91"/><polygon class="cls-6" points="48.64 157.91 -4.78 97.12 -4.78 128.8 20.8 157.91 48.64 157.91"/><polygon class="cls-5" points="70.43 157.91 -4.78 72.32 -4.78 104.01 42.59 157.91 70.43 157.91"/><polygon class="cls-6" points="92.22 157.91 -0.36 52.56 -4.78 57.6 -4.78 79.21 64.38 157.91 92.22 157.91"/><polygon class="cls-7" points="57.64 -3.54 -4.78 67.49 -4.78 99.17 85.48 -3.54 57.64 -3.54"/><polygon class="cls-8" points="35.85 -3.54 -4.78 42.69 -4.78 74.37 63.69 -3.54 35.85 -3.54"/><polygon class="cls-7" points="14.06 -3.54 -4.78 17.89 -4.78 49.58 41.9 -3.54 14.06 -3.54"/><polygon class="cls-8" points="-4.78 -3.54 -4.78 24.78 20.11 -3.54 -4.78 -3.54"/></g></svg>